<svg xmlns="http://www.w3.org/2000/svg" viewBox="0 0 1280 520" role="img" aria-label="Trang trí sân khấu xiếc"><defs><linearGradient id="beam" x1="0" y1="0" x2="0" y2="1"><stop stop-color="#fff4af" stop-opacity=".45"/><stop offset="1" stop-color="#fff4af" stop-opacity="0"/></linearGradient><radialGradient id="lamp"><stop stop-color="#fff"/><stop offset=".35" stop-color="#ffe65f"/><stop offset="1" stop-color="#f49b13"/></radialGradient></defs><path d="M120 0 350 470H20Z" fill="url(#beam)"/><path d="m1160 0-230 470h330z" fill="url(#beam)"/><g fill="url(#lamp)" stroke="#6d280d" stroke-width="7"><circle cx="112" cy="28" r="22"/><circle cx="1168" cy="28" r="22"/></g><g fill="#ffd83d"><path d="m196 84 7 16 17 2-13 11 4 17-15-9-15 9 4-17-13-11 17-2z"/><path d="m1084 95 7 16 17 2-13 11 4 17-15-9-15 9 4-17-13-11 17-2z"/><path d="m640 42 6 13 15 2-11 10 3 15-13-8-13 8 3-15-11-10 15-2z"/></g><g stroke="#7b401f" stroke-width="13" stroke-linecap="round"><path d="M87 257v213"/><path d="M1193 257v213"/></g><g fill="#f5b52a" stroke="#fff1a4" stroke-width="5"><circle cx="87" cy="242" r="28"/><circle cx="1193" cy="242" r="28"/></g><g opacity=".82"><circle cx="148" cy="475" r="44" fill="#753e9e"/><circle cx="218" cy="486" r="52" fill="#2259a6"/><circle cx="1060" cy="486" r="52" fill="#2259a6"/><circle cx="1134" cy="475" r="44" fill="#753e9e"/></g></svg>
